<?xml version="1.0" encoding="UTF-8"?>
<svg id="Layer_1" xmlns="http://www.w3.org/2000/svg" version="1.1" viewBox="0 0 512 512">
  <!-- Generator: Adobe Illustrator 29.8.3, SVG Export Plug-In . SVG Version: 2.1.1 Build 3)  -->
  <defs>
    <style>
      .st0 {
        fill: #231f20;
      }

      .st1 {
        isolation: isolate;
      }

      .st2 {
        fill: #fff;
      }
    </style>
  </defs>
  <rect class="st0" width="512" height="512"/>
  <g class="st1">
    <g class="st1">
      <path class="st2" d="M47.62,234.9l17.12,37.58,17.82-37.58h15.87l17.82,38.7,17.96-38.7h27.98l-37.31,71.41h-16.84l-17.82-39.12-16.98,39.12h-17.12l-36.61-71.41h28.12Z"/>
      <path class="st2" d="M211.32,234.9h25.33v71.41h-25.33v-7.93c-5.38,6.78-12.67,10.16-21.85,10.16-5.2,0-9.98-.95-14.34-2.85-4.36-1.9-8.17-4.57-11.41-8-3.25-3.43-5.78-7.47-7.59-12.11-1.81-4.64-2.71-9.7-2.71-15.17,0-5.1.88-9.95,2.65-14.55,1.76-4.59,4.22-8.61,7.38-12.04,3.15-3.43,6.91-6.15,11.28-8.14,4.36-1.99,9.19-2.99,14.48-2.99,8.91,0,16.29,3.11,22.13,9.33v-7.1ZM179.58,270.4c0,2.32.42,4.48,1.25,6.47.84,2,1.97,3.74,3.41,5.22,1.44,1.49,3.15,2.64,5.15,3.48,1.99.84,4.15,1.25,6.47,1.25s4.34-.42,6.33-1.25c1.99-.83,3.71-1.99,5.15-3.48,1.44-1.48,2.6-3.2,3.48-5.15.88-1.95,1.32-4.04,1.32-6.26s-.44-4.34-1.32-6.33c-.88-1.99-2.04-3.73-3.48-5.22-1.44-1.48-3.16-2.65-5.15-3.48-2-.83-4.11-1.25-6.33-1.25s-4.48.42-6.47,1.25c-2,.84-3.71,2-5.15,3.48-1.44,1.49-2.58,3.18-3.41,5.08-.83,1.9-1.25,3.97-1.25,6.19Z"/>
      <path class="st2" d="M242.64,190.77h25.19v53.17c3.43-4.18,6.91-6.98,10.44-8.42,3.53-1.44,7.66-2.16,12.39-2.16,9,0,15.8,2.48,20.39,7.45,4.59,4.97,6.89,11.67,6.89,20.11v45.38h-25.2v-36.05c0-3.62-.28-6.54-.83-8.77s-1.49-3.94-2.78-5.15c-2.23-1.95-4.92-2.92-8.07-2.92-4.27,0-7.54,1.28-9.81,3.83-2.28,2.55-3.41,6.19-3.41,10.93v38.14h-25.19v-115.54Z"/>
      <path class="st2" d="M321.14,269.98c0-5.29,1.07-10.23,3.2-14.82,2.13-4.59,5.1-8.58,8.91-11.97,3.8-3.39,8.33-6.06,13.57-8,5.24-1.95,10.97-2.92,17.19-2.92s11.81.95,17.05,2.85c5.24,1.9,9.79,4.55,13.64,7.93,3.85,3.39,6.84,7.43,8.98,12.11,2.13,4.69,3.2,9.86,3.2,15.52s-1.09,10.83-3.27,15.52c-2.18,4.69-5.17,8.72-8.98,12.11-3.81,3.39-8.38,6.01-13.71,7.86-5.34,1.86-11.11,2.78-17.33,2.78s-11.79-.93-16.98-2.78c-5.2-1.85-9.67-4.5-13.43-7.93-3.76-3.43-6.71-7.54-8.84-12.32-2.14-4.78-3.2-10.09-3.2-15.94ZM347.73,270.26c0,2.41.44,4.62,1.32,6.61.88,2,2.04,3.74,3.48,5.22,1.44,1.49,3.15,2.64,5.15,3.48,1.99.84,4.11,1.25,6.33,1.25s4.34-.42,6.33-1.25c1.99-.83,3.71-1.99,5.15-3.48,1.44-1.48,2.6-3.22,3.48-5.22.88-2,1.32-4.15,1.32-6.47s-.44-4.34-1.32-6.33c-.88-1.99-2.04-3.73-3.48-5.22-1.44-1.48-3.16-2.65-5.15-3.48-2-.83-4.11-1.25-6.33-1.25s-4.34.42-6.33,1.25c-2,.84-3.71,2-5.15,3.48-1.44,1.49-2.6,3.2-3.48,5.15-.88,1.95-1.32,4.04-1.32,6.26Z"/>
      <path class="st2" d="M407.45,269.98c0-5.29,1.07-10.23,3.2-14.82,2.13-4.59,5.1-8.58,8.91-11.97,3.8-3.39,8.33-6.06,13.57-8,5.24-1.95,10.97-2.92,17.19-2.92s11.81.95,17.05,2.85c5.24,1.9,9.79,4.55,13.64,7.93,3.85,3.39,6.84,7.43,8.98,12.11,2.13,4.69,3.2,9.86,3.2,15.52s-1.09,10.83-3.27,15.52c-2.18,4.69-5.17,8.72-8.98,12.11-3.81,3.39-8.38,6.01-13.71,7.86-5.34,1.86-11.11,2.78-17.33,2.78s-11.79-.93-16.98-2.78c-5.2-1.85-9.67-4.5-13.43-7.93-3.76-3.43-6.71-7.54-8.84-12.32-2.14-4.78-3.2-10.09-3.2-15.94ZM434.03,270.26c0,2.41.44,4.62,1.32,6.61.88,2,2.04,3.74,3.48,5.22,1.44,1.49,3.15,2.64,5.15,3.48,1.99.84,4.11,1.25,6.33,1.25s4.34-.42,6.33-1.25c1.99-.83,3.71-1.99,5.15-3.48,1.44-1.48,2.6-3.22,3.48-5.22.88-2,1.32-4.15,1.32-6.47s-.44-4.34-1.32-6.33c-.88-1.99-2.04-3.73-3.48-5.22-1.44-1.48-3.16-2.65-5.15-3.48-2-.83-4.11-1.25-6.33-1.25s-4.34.42-6.33,1.25c-2,.84-3.71,2-5.15,3.48-1.44,1.49-2.6,3.2-3.48,5.15-.88,1.95-1.32,4.04-1.32,6.26Z"/>
    </g>
  </g>
</svg>