<?xml version="1.0" encoding="UTF-8"?>
<svg id="Layer_1" data-name="Layer 1" xmlns="http://www.w3.org/2000/svg" viewBox="0 0 478.49 413">
  <defs>
    <style>
      .cls-1 {
        fill: #231f20;
      }
    </style>
  </defs>
  <path d="M304.71.21c22.59,2.85,38.4,25.18,35.98,47.48-1.25,11.56-5.8,7.65-11.54,11.44-2.95,1.96-6.69,9.97-11.52,13.47-18.03,13.1-44.93,4.9-53.78-15.05-10.92-24.6,5.15-53.97,31.86-57.35,2.19-.28,6.81-.28,8.99,0Z"/>
  <path d="M189.78,164.11c1.15.04,2.22.71,3.14,1.36,11.36,8.01,52.65,34.1,58.1,42.9,6.3,10.17,5.22,19.56,3.26,30.75-4.52,25.73-13.39,63.92-21.22,88.72-1.78,5.63-5.64,14.55-12.01,15.98-10.12,2.27-18.2-4.01-18.31-14.24,2.16-26.46,10.2-54.95,11.89-81.13.16-2.55.61-6.31-.08-8.66-.78-2.67-15.64-10.78-19.11-12.87-16.9-10.21-36.23-18.89-52.56-29.39-24.1-15.5-21.56-47.21-1.09-64.9,23.23-20.07,56.4-35.66,80.66-55.26,42.62-23.36,62.51,39.51,83.43,65.1,17.52,21.43,59.18-5.45,76.81,21.14,4.94,7.45,9.89,28.47-.04,32.99-12.01,5.47-11.9-13.28-20.69-15.26-20.2-2.9-55.22,5.88-71.72-7.23l-39.13-49.82-61.33,39.84Z"/>
  <path d="M156.9,244.44c2.65-6.84,16.26-18.58,8.4-25.35-13.06-11.27-17.81,6.72-25.09,15.08-50.82-24.47-114.93-2.88-134.35,51.37-21.66,60.53,19.13,121.14,81.97,127.45h15.99c29.48-2.61,59.34-20.72,74.38-46.06,24.59-41.43,14.67-91.63-21.3-122.5ZM117.04,391.73c-57.88,16.2-110.9-36.59-94.66-94.66,12.5-44.69,62.91-65.35,105.02-48.07.99.4,1.75-.56,1.44,1.61l-40.17,62.78c-3.88,4.53-.2,15.67,5.67,15.67h77.46c-3.3,28.26-27.61,55.09-54.75,62.69ZM110.82,311.05l34.49-50.99c15.08,12.17,24.04,31.9,26.47,50.99h-60.97Z"/>
  <path class="cls-1" d="M386.04,225.03c-10.06,0-19.74,1.62-28.82,4.6l-6.02-15.1s.03-.04.05-.07c-4.53-12.65-10.72-23.83-24.57-9.89-15.82,15.93-31.2,34.76-46.44,51.51-14.13,15.53-33.19,28.17-32.61,51.53.04,1.45,2.13,5.42,4.15,3.97,23.1-24.52,45.03-50.28,68.41-74.52,3.28-3.4,9.56-10.61,12.99-12.99.75-.52.95-1.2,2.02-1.08l5.55,13.91c-28.12,15.87-47.16,46.04-47.16,80.57,0,50.98,41.47,92.45,92.45,92.45s92.45-41.47,92.45-92.45-41.47-92.45-92.45-92.45ZM386.04,391.93c-41.05,0-74.45-33.4-74.45-74.45,0-26.95,14.39-50.6,35.89-63.67l26.71,67c1.41,3.52,4.79,5.67,8.36,5.67,1.11,0,2.24-.21,3.33-.64,4.62-1.84,6.87-7.08,5.03-11.69l-27.02-67.76c7-2.18,14.43-3.36,22.14-3.36,41.05,0,74.45,33.4,74.45,74.45s-33.4,74.45-74.45,74.45Z"/>
</svg>